<mxfile host="65bd71144e">
    <diagram id="2ynr90GHj4ZYSjGLNhtd" name="Bioinformatics">
        <mxGraphModel dx="1119" dy="897" grid="0" gridSize="10" guides="1" tooltips="1" connect="1" arrows="1" fold="1" page="1" pageScale="1" pageWidth="1100" pageHeight="850" math="0" shadow="0">
            <root>
                <mxCell id="0"/>
                <mxCell id="1" parent="0"/>
                <mxCell id="sDJI6eV0u0uD7m1CpdAG-2" value="Bioinformatics (Gov)" style="points=[[0,0],[0.25,0],[0.5,0],[0.75,0],[1,0],[1,0.25],[1,0.5],[1,0.75],[1,1],[0.75,1],[0.5,1],[0.25,1],[0,1],[0,0.75],[0,0.5],[0,0.25]];outlineConnect=0;gradientColor=none;html=1;whiteSpace=wrap;fontSize=12;fontStyle=0;container=1;pointerEvents=0;collapsible=0;recursiveResize=0;shape=mxgraph.aws4.group;grIcon=mxgraph.aws4.group_aws_cloud_alt;strokeColor=#232F3E;fillColor=none;verticalAlign=top;align=left;spacingLeft=30;fontColor=#232F3E;dashed=0;" parent="1" vertex="1">
                    <mxGeometry x="123" y="120" width="766.96" height="476" as="geometry"/>
                </mxCell>
                <mxCell id="sDJI6eV0u0uD7m1CpdAG-27" value="AWS Transit Gateway" style="sketch=0;points=[[0,0,0],[0.25,0,0],[0.5,0,0],[0.75,0,0],[1,0,0],[0,1,0],[0.25,1,0],[0.5,1,0],[0.75,1,0],[1,1,0],[0,0.25,0],[0,0.5,0],[0,0.75,0],[1,0.25,0],[1,0.5,0],[1,0.75,0]];outlineConnect=0;fontColor=#232F3E;gradientColor=#945DF2;gradientDirection=north;fillColor=#5A30B5;strokeColor=#ffffff;dashed=0;verticalLabelPosition=bottom;verticalAlign=top;align=center;html=1;fontSize=12;fontStyle=0;aspect=fixed;shape=mxgraph.aws4.resourceIcon;resIcon=mxgraph.aws4.transit_gateway;" parent="sDJI6eV0u0uD7m1CpdAG-2" vertex="1">
                    <mxGeometry x="70" y="56" width="50" height="50" as="geometry"/>
                </mxCell>
            </root>
        </mxGraphModel>
    </diagram>
    <diagram id="zxqguAOSIUkq-bdtBaQS" name="Azure Example">
        <mxGraphModel dx="794" dy="614" grid="1" gridSize="10" guides="1" tooltips="1" connect="1" arrows="1" fold="1" page="1" pageScale="1" pageWidth="850" pageHeight="1100" math="0" shadow="0">
            <root>
                <mxCell id="0"/>
                <mxCell id="1" parent="0"/>
                <mxCell id="7PEQJ0GNF5ol1b0nWfgi-1" value="" style="rounded=0;whiteSpace=wrap;html=1;fillColor=none;dashed=1;labelBackgroundColor=none;" parent="1" vertex="1">
                    <mxGeometry x="160" y="40" width="1170" height="370" as="geometry"/>
                </mxCell>
                <mxCell id="7PEQJ0GNF5ol1b0nWfgi-2" style="edgeStyle=orthogonalEdgeStyle;rounded=0;orthogonalLoop=1;jettySize=auto;html=1;dashed=1;labelBackgroundColor=none;" parent="1" source="7PEQJ0GNF5ol1b0nWfgi-40" target="7PEQJ0GNF5ol1b0nWfgi-24" edge="1">
                    <mxGeometry relative="1" as="geometry"/>
                </mxCell>
                <mxCell id="7PEQJ0GNF5ol1b0nWfgi-3" style="edgeStyle=orthogonalEdgeStyle;rounded=0;orthogonalLoop=1;jettySize=auto;html=1;endArrow=none;endFill=0;fillColor=#dae8fc;strokeColor=#6c8ebf;labelBackgroundColor=none;" parent="1" source="7PEQJ0GNF5ol1b0nWfgi-40" target="7PEQJ0GNF5ol1b0nWfgi-26" edge="1">
                    <mxGeometry relative="1" as="geometry">
                        <Array as="points">
                            <mxPoint x="730" y="190"/>
                            <mxPoint x="730" y="190"/>
                        </Array>
                    </mxGeometry>
                </mxCell>
                <mxCell id="7PEQJ0GNF5ol1b0nWfgi-4" value="Metric Data&lt;br&gt;Audit &amp;amp; Diagnostic Logs" style="edgeStyle=orthogonalEdgeStyle;rounded=0;orthogonalLoop=1;jettySize=auto;html=1;labelBackgroundColor=none;dashed=1;" parent="1" source="7PEQJ0GNF5ol1b0nWfgi-40" target="7PEQJ0GNF5ol1b0nWfgi-36" edge="1">
                    <mxGeometry relative="1" as="geometry">
                        <Array as="points">
                            <mxPoint x="1110" y="125"/>
                            <mxPoint x="1110" y="125"/>
                        </Array>
                    </mxGeometry>
                </mxCell>
                <mxCell id="7PEQJ0GNF5ol1b0nWfgi-5" style="edgeStyle=orthogonalEdgeStyle;rounded=0;orthogonalLoop=1;jettySize=auto;html=1;fillColor=#dae8fc;strokeColor=#6c8ebf;labelBackgroundColor=none;" parent="1" source="7PEQJ0GNF5ol1b0nWfgi-8" target="7PEQJ0GNF5ol1b0nWfgi-40" edge="1">
                    <mxGeometry relative="1" as="geometry">
                        <Array as="points">
                            <mxPoint x="710" y="120"/>
                            <mxPoint x="710" y="120"/>
                        </Array>
                    </mxGeometry>
                </mxCell>
                <mxCell id="7PEQJ0GNF5ol1b0nWfgi-6" style="edgeStyle=orthogonalEdgeStyle;rounded=0;orthogonalLoop=1;jettySize=auto;html=1;dashed=1;labelBackgroundColor=none;entryX=0.5;entryY=1;entryDx=0;entryDy=0;" parent="1" source="7PEQJ0GNF5ol1b0nWfgi-8" target="7PEQJ0GNF5ol1b0nWfgi-36" edge="1">
                    <mxGeometry relative="1" as="geometry">
                        <mxPoint x="1250" y="300" as="targetPoint"/>
                        <Array as="points">
                            <mxPoint x="458" y="340"/>
                            <mxPoint x="1250" y="340"/>
                        </Array>
                    </mxGeometry>
                </mxCell>
                <mxCell id="7PEQJ0GNF5ol1b0nWfgi-7" value="Diagnostic Logs &amp;amp; Metric Data" style="edgeLabel;html=1;align=center;verticalAlign=middle;resizable=0;points=[];labelBackgroundColor=none;" parent="7PEQJ0GNF5ol1b0nWfgi-6" vertex="1" connectable="0">
                    <mxGeometry x="-0.561" relative="1" as="geometry">
                        <mxPoint x="6" y="-7" as="offset"/>
                    </mxGeometry>
                </mxCell>
                <mxCell id="7PEQJ0GNF5ol1b0nWfgi-8" value="" style="rounded=0;whiteSpace=wrap;html=1;dashed=1;labelBackgroundColor=none;fillColor=#E6E6E6;strokeColor=none;" parent="1" vertex="1">
                    <mxGeometry x="290" y="100.5" width="336" height="180" as="geometry"/>
                </mxCell>
                <mxCell id="7PEQJ0GNF5ol1b0nWfgi-9" value="" style="rounded=0;whiteSpace=wrap;html=1;dashed=1;fillColor=#E6E6E6;strokeColor=none;labelBackgroundColor=none;" parent="1" vertex="1">
                    <mxGeometry x="300" y="290" width="140" height="85" as="geometry"/>
                </mxCell>
                <mxCell id="7PEQJ0GNF5ol1b0nWfgi-10" value="Azure Active Directory" style="aspect=fixed;html=1;points=[];align=center;image;fontSize=12;image=img/lib/azure2/identity/Azure_Active_Directory.svg;fontFamily=Helvetica;fontColor=default;strokeColor=none;fillColor=#00BEF2;labelPosition=center;verticalLabelPosition=top;verticalAlign=bottom;labelBackgroundColor=none;" parent="1" vertex="1">
                    <mxGeometry x="49.75" y="20" width="62.5" height="70" as="geometry"/>
                </mxCell>
                <mxCell id="7PEQJ0GNF5ol1b0nWfgi-11" value="DNS Lookup" style="edgeStyle=orthogonalEdgeStyle;rounded=0;orthogonalLoop=1;jettySize=auto;html=1;dashed=1;labelBackgroundColor=none;" parent="1" source="7PEQJ0GNF5ol1b0nWfgi-14" target="7PEQJ0GNF5ol1b0nWfgi-15" edge="1">
                    <mxGeometry relative="1" as="geometry"/>
                </mxCell>
                <mxCell id="7PEQJ0GNF5ol1b0nWfgi-12" value="Authentication" style="edgeStyle=orthogonalEdgeStyle;rounded=0;orthogonalLoop=1;jettySize=auto;html=1;dashed=1;labelBackgroundColor=none;" parent="1" source="7PEQJ0GNF5ol1b0nWfgi-14" target="7PEQJ0GNF5ol1b0nWfgi-10" edge="1">
                    <mxGeometry relative="1" as="geometry"/>
                </mxCell>
                <mxCell id="7PEQJ0GNF5ol1b0nWfgi-13" style="edgeStyle=orthogonalEdgeStyle;rounded=0;orthogonalLoop=1;jettySize=auto;html=1;fillColor=#dae8fc;strokeColor=#6c8ebf;labelBackgroundColor=none;" parent="1" source="7PEQJ0GNF5ol1b0nWfgi-14" target="7PEQJ0GNF5ol1b0nWfgi-17" edge="1">
                    <mxGeometry relative="1" as="geometry"/>
                </mxCell>
                <mxCell id="7PEQJ0GNF5ol1b0nWfgi-14" value="Internet" style="shape=image;html=1;verticalAlign=middle;verticalLabelPosition=middle;labelBackgroundColor=none;imageAspect=0;aspect=fixed;image=https://cdn4.iconfinder.com/data/icons/for-your-interface-free-samples/128/Globe-128.png;labelPosition=left;align=right;" parent="1" vertex="1">
                    <mxGeometry x="47.25" y="171" width="65" height="65" as="geometry"/>
                </mxCell>
                <mxCell id="7PEQJ0GNF5ol1b0nWfgi-15" value="Azure DNS" style="aspect=fixed;html=1;points=[];align=center;image;fontSize=12;image=img/lib/azure2/networking/DNS_Zones.svg;labelBackgroundColor=none;" parent="1" vertex="1">
                    <mxGeometry x="55.63" y="330" width="48.25" height="48.25" as="geometry"/>
                </mxCell>
                <mxCell id="7PEQJ0GNF5ol1b0nWfgi-16" style="edgeStyle=orthogonalEdgeStyle;rounded=0;orthogonalLoop=1;jettySize=auto;html=1;fillColor=#dae8fc;strokeColor=#6c8ebf;labelBackgroundColor=none;" parent="1" source="7PEQJ0GNF5ol1b0nWfgi-17" target="7PEQJ0GNF5ol1b0nWfgi-33" edge="1">
                    <mxGeometry relative="1" as="geometry">
                        <Array as="points">
                            <mxPoint x="290" y="204"/>
                            <mxPoint x="290" y="204"/>
                        </Array>
                    </mxGeometry>
                </mxCell>
                <mxCell id="7PEQJ0GNF5ol1b0nWfgi-17" value="Azure Front Door&lt;br&gt;WAF&lt;br&gt;CDN" style="aspect=fixed;html=1;points=[];align=center;image;fontSize=12;image=img/lib/azure2/networking/Front_Doors.svg;labelPosition=center;verticalLabelPosition=top;verticalAlign=bottom;labelBackgroundColor=none;" parent="1" vertex="1">
                    <mxGeometry x="191" y="174" width="68" height="60" as="geometry"/>
                </mxCell>
                <mxCell id="7PEQJ0GNF5ol1b0nWfgi-18" style="edgeStyle=orthogonalEdgeStyle;rounded=0;orthogonalLoop=1;jettySize=auto;html=1;fillColor=#dae8fc;strokeColor=#6c8ebf;labelBackgroundColor=none;" parent="1" source="7PEQJ0GNF5ol1b0nWfgi-33" target="7PEQJ0GNF5ol1b0nWfgi-20" edge="1">
                    <mxGeometry relative="1" as="geometry">
                        <Array as="points">
                            <mxPoint x="410" y="204"/>
                            <mxPoint x="410" y="204"/>
                        </Array>
                    </mxGeometry>
                </mxCell>
                <mxCell id="7PEQJ0GNF5ol1b0nWfgi-19" style="edgeStyle=orthogonalEdgeStyle;rounded=0;orthogonalLoop=1;jettySize=auto;html=1;fillColor=#dae8fc;strokeColor=#6c8ebf;labelBackgroundColor=none;" parent="1" source="7PEQJ0GNF5ol1b0nWfgi-20" target="7PEQJ0GNF5ol1b0nWfgi-30" edge="1">
                    <mxGeometry relative="1" as="geometry">
                        <Array as="points">
                            <mxPoint x="520" y="204"/>
                            <mxPoint x="520" y="204"/>
                        </Array>
                    </mxGeometry>
                </mxCell>
                <mxCell id="7PEQJ0GNF5ol1b0nWfgi-20" value="Queue" style="verticalLabelPosition=top;html=1;verticalAlign=bottom;align=center;strokeColor=none;fillColor=#00BEF2;shape=mxgraph.azure.storage_queue;labelPosition=center;labelBackgroundColor=none;" parent="1" vertex="1">
                    <mxGeometry x="437" y="181.5" width="50" height="45" as="geometry"/>
                </mxCell>
                <mxCell id="7PEQJ0GNF5ol1b0nWfgi-21" style="edgeStyle=orthogonalEdgeStyle;rounded=0;orthogonalLoop=1;jettySize=auto;html=1;fillColor=#dae8fc;strokeColor=#6c8ebf;labelBackgroundColor=none;" parent="1" source="7PEQJ0GNF5ol1b0nWfgi-22" target="7PEQJ0GNF5ol1b0nWfgi-17" edge="1">
                    <mxGeometry relative="1" as="geometry"/>
                </mxCell>
                <mxCell id="7PEQJ0GNF5ol1b0nWfgi-22" value="Blob" style="verticalLabelPosition=bottom;html=1;verticalAlign=top;align=center;strokeColor=none;fillColor=#00BEF2;shape=mxgraph.azure.storage_blob;labelBackgroundColor=none;" parent="1" vertex="1">
                    <mxGeometry x="310" y="305" width="50" height="45" as="geometry"/>
                </mxCell>
                <mxCell id="7PEQJ0GNF5ol1b0nWfgi-23" style="edgeStyle=orthogonalEdgeStyle;rounded=0;orthogonalLoop=1;jettySize=auto;html=1;fillColor=#dae8fc;strokeColor=#6c8ebf;labelBackgroundColor=none;" parent="1" source="7PEQJ0GNF5ol1b0nWfgi-24" target="7PEQJ0GNF5ol1b0nWfgi-8" edge="1">
                    <mxGeometry relative="1" as="geometry">
                        <Array as="points">
                            <mxPoint x="680" y="264"/>
                            <mxPoint x="680" y="264"/>
                        </Array>
                    </mxGeometry>
                </mxCell>
                <mxCell id="7PEQJ0GNF5ol1b0nWfgi-24" value="Azure Search" style="aspect=fixed;html=1;points=[];align=center;image;fontSize=12;image=img/lib/azure2/app_services/Search_Services.svg;labelBackgroundColor=none;" parent="1" vertex="1">
                    <mxGeometry x="854" y="236" width="72" height="52" as="geometry"/>
                </mxCell>
                <mxCell id="7PEQJ0GNF5ol1b0nWfgi-25" style="rounded=0;orthogonalLoop=1;jettySize=auto;html=1;edgeStyle=orthogonalEdgeStyle;fillColor=#dae8fc;strokeColor=#6c8ebf;labelBackgroundColor=none;" parent="1" source="7PEQJ0GNF5ol1b0nWfgi-26" target="7PEQJ0GNF5ol1b0nWfgi-8" edge="1">
                    <mxGeometry relative="1" as="geometry">
                        <Array as="points">
                            <mxPoint x="640" y="190"/>
                            <mxPoint x="640" y="190"/>
                        </Array>
                    </mxGeometry>
                </mxCell>
                <mxCell id="7PEQJ0GNF5ol1b0nWfgi-26" value="Redis Cache" style="aspect=fixed;html=1;points=[];align=center;image;fontSize=12;image=img/lib/azure2/databases/Cache_Redis.svg;labelBackgroundColor=none;" parent="1" vertex="1">
                    <mxGeometry x="650" y="160" width="64" height="52" as="geometry"/>
                </mxCell>
                <mxCell id="7PEQJ0GNF5ol1b0nWfgi-27" value="Static Content" style="aspect=fixed;html=1;points=[];align=center;image;fontSize=12;image=img/lib/azure2/general/File.svg;labelBackgroundColor=none;" parent="1" vertex="1">
                    <mxGeometry x="379" y="305" width="36.51" height="45" as="geometry"/>
                </mxCell>
                <mxCell id="7PEQJ0GNF5ol1b0nWfgi-28" value="Resource Group" style="aspect=fixed;html=1;points=[];align=center;image;fontSize=12;image=img/lib/azure2/general/Resource_Groups.svg;dashed=1;fillColor=none;labelBackgroundColor=none;" parent="1" vertex="1">
                    <mxGeometry x="150" y="390" width="30" height="28.24" as="geometry"/>
                </mxCell>
                <mxCell id="7PEQJ0GNF5ol1b0nWfgi-29" value="" style="group;labelBackgroundColor=none;strokeColor=none;" parent="1" vertex="1" connectable="0">
                    <mxGeometry x="525" y="111" width="90" height="159" as="geometry"/>
                </mxCell>
                <mxCell id="7PEQJ0GNF5ol1b0nWfgi-30" value="" style="rounded=0;whiteSpace=wrap;html=1;dashed=1;labelBackgroundColor=none;fillColor=#FFFFFF;labelPosition=center;verticalLabelPosition=top;align=center;verticalAlign=bottom;spacingTop=0;spacingBottom=-35;strokeColor=none;" parent="7PEQJ0GNF5ol1b0nWfgi-29" vertex="1">
                    <mxGeometry width="90" height="159" as="geometry"/>
                </mxCell>
                <mxCell id="7PEQJ0GNF5ol1b0nWfgi-31" value="Function App" style="aspect=fixed;html=1;points=[];align=center;image;fontSize=12;image=img/lib/azure2/compute/Function_Apps.svg;labelPosition=center;verticalLabelPosition=top;verticalAlign=bottom;labelBackgroundColor=none;" parent="7PEQJ0GNF5ol1b0nWfgi-29" vertex="1">
                    <mxGeometry x="11" y="83" width="68" height="60" as="geometry"/>
                </mxCell>
                <mxCell id="7PEQJ0GNF5ol1b0nWfgi-32" value="" style="group;labelBackgroundColor=none;strokeColor=none;" parent="1" vertex="1" connectable="0">
                    <mxGeometry x="303" y="111" width="90" height="159" as="geometry"/>
                </mxCell>
                <mxCell id="7PEQJ0GNF5ol1b0nWfgi-33" value="App Service Plan" style="rounded=0;whiteSpace=wrap;html=1;dashed=1;labelBackgroundColor=none;fillColor=#FFFFFF;labelPosition=center;verticalLabelPosition=top;align=center;verticalAlign=bottom;spacingTop=0;spacingBottom=-35;strokeColor=none;" parent="7PEQJ0GNF5ol1b0nWfgi-32" vertex="1">
                    <mxGeometry width="90" height="159" as="geometry"/>
                </mxCell>
                <mxCell id="7PEQJ0GNF5ol1b0nWfgi-34" value="Web App" style="aspect=fixed;html=1;points=[];align=center;image;fontSize=12;image=img/lib/azure2/compute/App_Services.svg;labelPosition=center;verticalLabelPosition=top;verticalAlign=bottom;labelBackgroundColor=none;" parent="7PEQJ0GNF5ol1b0nWfgi-32" vertex="1">
                    <mxGeometry x="13" y="81" width="64" height="64" as="geometry"/>
                </mxCell>
                <mxCell id="7PEQJ0GNF5ol1b0nWfgi-35" value="" style="group;labelBackgroundColor=none;strokeColor=none;" parent="1" vertex="1" connectable="0">
                    <mxGeometry x="1190" y="50" width="120" height="230" as="geometry"/>
                </mxCell>
                <mxCell id="7PEQJ0GNF5ol1b0nWfgi-36" value="" style="rounded=0;whiteSpace=wrap;html=1;dashed=1;labelBackgroundColor=none;fillColor=#E6E6E6;strokeColor=none;" parent="7PEQJ0GNF5ol1b0nWfgi-35" vertex="1">
                    <mxGeometry width="120" height="230" as="geometry"/>
                </mxCell>
                <mxCell id="7PEQJ0GNF5ol1b0nWfgi-37" value="Azure Monitor" style="aspect=fixed;html=1;points=[];align=center;image;fontSize=12;image=img/lib/azure2/management_governance/Monitor.svg;dashed=1;labelBackgroundColor=none;fillColor=#FFFFFF;" parent="7PEQJ0GNF5ol1b0nWfgi-35" vertex="1">
                    <mxGeometry x="28" y="15" width="64" height="64" as="geometry"/>
                </mxCell>
                <mxCell id="7PEQJ0GNF5ol1b0nWfgi-38" value="Log Analytics" style="aspect=fixed;html=1;points=[];align=center;image;fontSize=12;image=img/lib/azure2/analytics/Log_Analytics_Workspaces.svg;dashed=1;labelBackgroundColor=none;fillColor=#FFFFFF;" parent="7PEQJ0GNF5ol1b0nWfgi-35" vertex="1">
                    <mxGeometry x="28" y="120" width="64" height="64" as="geometry"/>
                </mxCell>
                <mxCell id="7PEQJ0GNF5ol1b0nWfgi-39" value="" style="group;labelBackgroundColor=none;strokeColor=none;" parent="1" vertex="1" connectable="0">
                    <mxGeometry x="740" y="50" width="300" height="150" as="geometry"/>
                </mxCell>
                <mxCell id="7PEQJ0GNF5ol1b0nWfgi-40" value="" style="rounded=0;whiteSpace=wrap;html=1;dashed=1;labelBackgroundColor=none;fillColor=#E6E6E6;strokeColor=none;" parent="7PEQJ0GNF5ol1b0nWfgi-39" vertex="1">
                    <mxGeometry width="300" height="150" as="geometry"/>
                </mxCell>
                <mxCell id="7PEQJ0GNF5ol1b0nWfgi-41" value="Azure SQL Database" style="aspect=fixed;html=1;points=[];align=center;image;fontSize=12;image=img/lib/azure2/databases/SQL_Database.svg;labelBackgroundColor=none;" parent="7PEQJ0GNF5ol1b0nWfgi-39" vertex="1">
                    <mxGeometry x="50" y="10" width="48" height="64" as="geometry"/>
                </mxCell>
                <mxCell id="7PEQJ0GNF5ol1b0nWfgi-42" value="Azure Cosmos Database" style="aspect=fixed;html=1;points=[];align=center;image;fontSize=12;image=img/lib/azure2/databases/Azure_Cosmos_DB.svg;labelBackgroundColor=none;" parent="7PEQJ0GNF5ol1b0nWfgi-39" vertex="1">
                    <mxGeometry x="190" y="10" width="64" height="64" as="geometry"/>
                </mxCell>
                <mxCell id="7PEQJ0GNF5ol1b0nWfgi-43" value="" style="rounded=0;whiteSpace=wrap;html=1;dashed=1;labelBackgroundColor=none;fillColor=#E6E6E6;strokeColor=none;" parent="1" vertex="1">
                    <mxGeometry x="294" y="480" width="336" height="180" as="geometry"/>
                </mxCell>
                <mxCell id="7PEQJ0GNF5ol1b0nWfgi-44" style="edgeStyle=orthogonalEdgeStyle;rounded=0;orthogonalLoop=1;jettySize=auto;html=1;fillColor=#dae8fc;strokeColor=#6c8ebf;labelBackgroundColor=none;" parent="1" source="7PEQJ0GNF5ol1b0nWfgi-51" target="7PEQJ0GNF5ol1b0nWfgi-46" edge="1">
                    <mxGeometry relative="1" as="geometry">
                        <Array as="points">
                            <mxPoint x="414" y="583.5"/>
                            <mxPoint x="414" y="583.5"/>
                        </Array>
                    </mxGeometry>
                </mxCell>
                <mxCell id="7PEQJ0GNF5ol1b0nWfgi-45" style="edgeStyle=orthogonalEdgeStyle;rounded=0;orthogonalLoop=1;jettySize=auto;html=1;fillColor=#dae8fc;strokeColor=#6c8ebf;labelBackgroundColor=none;" parent="1" source="7PEQJ0GNF5ol1b0nWfgi-46" target="7PEQJ0GNF5ol1b0nWfgi-48" edge="1">
                    <mxGeometry relative="1" as="geometry">
                        <Array as="points">
                            <mxPoint x="524" y="583.5"/>
                            <mxPoint x="524" y="583.5"/>
                        </Array>
                    </mxGeometry>
                </mxCell>
                <mxCell id="7PEQJ0GNF5ol1b0nWfgi-46" value="Queue" style="verticalLabelPosition=top;html=1;verticalAlign=bottom;align=center;strokeColor=none;fillColor=#00BEF2;shape=mxgraph.azure.storage_queue;labelPosition=center;labelBackgroundColor=none;" parent="1" vertex="1">
                    <mxGeometry x="441" y="561" width="50" height="45" as="geometry"/>
                </mxCell>
                <mxCell id="7PEQJ0GNF5ol1b0nWfgi-47" value="" style="group;labelBackgroundColor=none;strokeColor=none;" parent="1" vertex="1" connectable="0">
                    <mxGeometry x="529" y="490.5" width="90" height="159" as="geometry"/>
                </mxCell>
                <mxCell id="7PEQJ0GNF5ol1b0nWfgi-48" value="" style="rounded=0;whiteSpace=wrap;html=1;dashed=1;labelBackgroundColor=none;fillColor=#FFFFFF;labelPosition=center;verticalLabelPosition=top;align=center;verticalAlign=bottom;spacingTop=0;spacingBottom=-35;strokeColor=none;" parent="7PEQJ0GNF5ol1b0nWfgi-47" vertex="1">
                    <mxGeometry width="90" height="159" as="geometry"/>
                </mxCell>
                <mxCell id="7PEQJ0GNF5ol1b0nWfgi-49" value="Function App" style="aspect=fixed;html=1;points=[];align=center;image;fontSize=12;image=img/lib/azure2/compute/Function_Apps.svg;labelPosition=center;verticalLabelPosition=top;verticalAlign=bottom;labelBackgroundColor=none;" parent="7PEQJ0GNF5ol1b0nWfgi-47" vertex="1">
                    <mxGeometry x="11" y="83" width="68" height="60" as="geometry"/>
                </mxCell>
                <mxCell id="7PEQJ0GNF5ol1b0nWfgi-50" value="" style="group;labelBackgroundColor=none;strokeColor=none;" parent="1" vertex="1" connectable="0">
                    <mxGeometry x="307" y="490.5" width="90" height="159" as="geometry"/>
                </mxCell>
                <mxCell id="7PEQJ0GNF5ol1b0nWfgi-51" value="App Service Plan" style="rounded=0;whiteSpace=wrap;html=1;dashed=1;labelBackgroundColor=none;fillColor=#FFFFFF;labelPosition=center;verticalLabelPosition=top;align=center;verticalAlign=bottom;spacingTop=0;spacingBottom=-35;strokeColor=none;" parent="7PEQJ0GNF5ol1b0nWfgi-50" vertex="1">
                    <mxGeometry width="90" height="159" as="geometry"/>
                </mxCell>
                <mxCell id="7PEQJ0GNF5ol1b0nWfgi-52" value="Web App" style="aspect=fixed;html=1;points=[];align=center;image;fontSize=12;image=img/lib/azure2/compute/App_Services.svg;labelPosition=center;verticalLabelPosition=top;verticalAlign=bottom;labelBackgroundColor=none;" parent="7PEQJ0GNF5ol1b0nWfgi-50" vertex="1">
                    <mxGeometry x="13" y="81" width="64" height="64" as="geometry"/>
                </mxCell>
            </root>
        </mxGraphModel>
    </diagram>
</mxfile>